<svg width="86" height="71" viewBox="0 0 86 71" fill="none" xmlns="http://www.w3.org/2000/svg">
<path d="M1 6.02414C3.5 8.48359 6 10.943 11.4167 10.943C21.8333 10.943 21.8333 1.10526 32.25 1.10526C43.0833 1.10526 42.25 10.943 53.0833 10.943C63.5 10.943 63.5 1.10526 73.9167 1.10526C79.3333 1.10526 81.8333 3.5647 84.3333 6.02414M1 35.5375C3.5 37.9969 6 40.4564 11.4167 40.4564C21.8333 40.4564 21.8333 30.6186 32.25 30.6186C43.0833 30.6186 42.25 40.4564 53.0833 40.4564C63.5 40.4564 63.5 30.6186 73.9167 30.6186C79.3333 30.6186 81.8333 33.078 84.3333 35.5375M1 65.0508C3.5 67.5102 6 69.9697 11.4167 69.9697C21.8333 69.9697 21.8333 60.1319 32.25 60.1319C43.0833 60.1319 42.25 69.9697 53.0833 69.9697C63.5 69.9697 63.5 60.1319 73.9167 60.1319C79.3333 60.1319 81.8333 62.5913 84.3333 65.0508" stroke="black" stroke-width="2" stroke-linecap="round" stroke-linejoin="round"/>
</svg>
