<svg width="1920" height="640" viewBox="0 0 1920 640" fill="none" xmlns="http://www.w3.org/2000/svg">
<mask id="mask0_1365_16040" style="mask-type:alpha" maskUnits="userSpaceOnUse" x="0" y="0" width="1920" height="640">
<path d="M0 0H1920V640H0V0Z" fill="#D9D9D9"/>
</mask>
<g mask="url(#mask0_1365_16040)">
<path fill-rule="evenodd" clip-rule="evenodd" d="M0 187.86V676H1920V279.336C1787.78 93.0995 1543.01 -51.7588 1250.23 17.9729C1130.76 46.427 1035.55 101.287 939.458 156.649L939.443 156.657C916.639 169.796 893.785 182.964 870.546 195.813C749.412 262.79 617.989 321 429 321C208.421 321 81.748 263.057 0 187.86Z" fill="white"/>
<path fill-rule="evenodd" clip-rule="evenodd" d="M1921.68 286.421C1790.36 97.6775 1543.74 -50.5604 1248.23 19.8232C1128.76 48.2773 1033.55 103.138 937.458 158.499C914.649 171.641 891.79 184.811 868.546 197.663C747.412 264.64 615.989 322.85 427 322.85C205.81 322.85 79.0467 264.586 -2.67856 189.085L-3.41309 188.406L-2.05592 186.937L-1.3214 187.616C79.9534 262.701 206.19 320.85 427 320.85C615.511 320.85 746.588 262.811 867.579 195.913C890.761 183.095 913.579 169.947 936.364 156.819C1032.47 101.443 1127.99 46.4055 1247.77 17.8776C1544.26 -52.7388 1791.64 96.0232 1923.32 285.279L1923.89 286.1L1922.25 287.242L1921.68 286.421Z" fill="black"/>
</g>
</svg>
