<svg width="431" height="424" viewBox="0 0 431 424" fill="none" xmlns="http://www.w3.org/2000/svg">
<path fill-rule="evenodd" clip-rule="evenodd" d="M210.203 364.556C295.255 364.556 364.203 295.608 364.203 210.556C364.203 125.504 295.255 56.5557 210.203 56.5557C125.151 56.5557 56.2032 125.504 56.2032 210.556C56.2032 295.608 125.151 364.556 210.203 364.556ZM247.203 305.556C279.236 305.556 305.203 279.588 305.203 247.556C305.203 215.523 279.236 189.556 247.203 189.556C215.171 189.556 189.203 215.523 189.203 247.556C189.203 279.588 215.171 305.556 247.203 305.556Z" fill="black"/>
<path fill-rule="evenodd" clip-rule="evenodd" d="M210.203 362.556C294.15 362.556 362.203 294.503 362.203 210.556C362.203 126.608 294.15 58.5557 210.203 58.5557C126.256 58.5557 58.2032 126.608 58.2032 210.556C58.2032 294.503 126.256 362.556 210.203 362.556ZM307.203 247.556C307.203 280.693 280.34 307.556 247.203 307.556C214.066 307.556 187.203 280.693 187.203 247.556C187.203 214.419 214.066 187.556 247.203 187.556C280.34 187.556 307.203 214.419 307.203 247.556ZM364.203 210.556C364.203 295.608 295.255 364.556 210.203 364.556C125.151 364.556 56.2032 295.608 56.2032 210.556C56.2032 125.504 125.151 56.5557 210.203 56.5557C295.255 56.5557 364.203 125.504 364.203 210.556ZM305.203 247.556C305.203 279.588 279.236 305.556 247.203 305.556C215.171 305.556 189.203 279.588 189.203 247.556C189.203 215.523 215.171 189.556 247.203 189.556C279.236 189.556 305.203 215.523 305.203 247.556Z" fill="white"/>
<mask id="mask0_1152_15924" style="mask-type:alpha" maskUnits="userSpaceOnUse" x="153" y="153" width="114" height="114">
<path fill-rule="evenodd" clip-rule="evenodd" d="M266.067 192.692C260.153 190.659 253.807 189.556 247.203 189.556C215.171 189.556 189.203 215.523 189.203 247.556C189.203 254.159 190.307 260.505 192.34 266.419C169.568 258.591 153.203 236.984 153.203 211.556C153.203 179.523 179.171 153.556 211.203 153.556C236.632 153.556 258.239 169.92 266.067 192.692Z" fill="#9BF952"/>
</mask>
<g mask="url(#mask0_1152_15924)">
<path d="M269.203 211.556C269.203 243.588 243.236 269.556 211.203 269.556C179.171 269.556 153.203 243.588 153.203 211.556C153.203 179.523 179.171 153.556 211.203 153.556C243.236 153.556 269.203 179.523 269.203 211.556Z" fill="#9BF952"/>
<path d="M281.203 223.556C281.203 255.588 255.236 281.556 223.203 281.556C191.171 281.556 165.203 255.588 165.203 223.556C165.203 191.523 191.171 165.556 223.203 165.556C255.236 165.556 281.203 191.523 281.203 223.556Z" fill="#B658FF"/>
<path fill-rule="evenodd" clip-rule="evenodd" d="M223.203 166.056C191.447 166.056 165.703 191.799 165.703 223.556C165.703 255.312 191.447 281.056 223.203 281.056C254.96 281.056 280.703 255.312 280.703 223.556C280.703 191.799 254.96 166.056 223.203 166.056ZM164.703 223.556C164.703 191.247 190.895 165.056 223.203 165.056C255.512 165.056 281.703 191.247 281.703 223.556C281.703 255.864 255.512 282.056 223.203 282.056C190.895 282.056 164.703 255.864 164.703 223.556Z" fill="black"/>
<path d="M293.203 235.556C293.203 267.588 267.236 293.556 235.203 293.556C203.171 293.556 177.203 267.588 177.203 235.556C177.203 203.523 203.171 177.556 235.203 177.556C267.236 177.556 293.203 203.523 293.203 235.556Z" fill="#FC875E"/>
<path fill-rule="evenodd" clip-rule="evenodd" d="M235.203 178.056C203.447 178.056 177.703 203.799 177.703 235.556C177.703 267.312 203.447 293.056 235.203 293.056C266.96 293.056 292.703 267.312 292.703 235.556C292.703 203.799 266.96 178.056 235.203 178.056ZM176.703 235.556C176.703 203.247 202.895 177.056 235.203 177.056C267.512 177.056 293.703 203.247 293.703 235.556C293.703 267.864 267.512 294.056 235.203 294.056C202.895 294.056 176.703 267.864 176.703 235.556Z" fill="black"/>
</g>
<path fill-rule="evenodd" clip-rule="evenodd" d="M233.5 129.993L215.735 124.829L215.734 124.829L209.813 123.108C207.331 122.849 201.735 124.509 199.204 133.215C196.673 141.921 198.698 146.953 200.026 148.381L245.053 161.468L245.062 161.466C250.538 163.166 257.605 163.503 266.57 161.319L287.015 90.9815C287.346 87.5601 285.011 80.0016 273.4 76.0256L273.388 75.9799L271.73 75.4978L227.397 62.6118C224.915 62.3532 219.319 64.0126 216.788 72.719C214.258 81.4253 216.282 86.457 217.61 87.8845L225.783 90.26L242.107 95.005L242.387 94.0448C242.849 92.4538 244.514 91.5389 246.105 92.0014L247.065 92.2805L245.39 98.042C245.082 99.1027 243.972 99.7126 242.912 99.4043L242.431 99.2647L224.667 94.1011L223.153 93.6612C220.638 93.4471 214.902 95.4497 212.376 104.139C209.55 113.862 211.761 118.346 213.07 119.889L216.849 120.987L216.851 120.988L234.616 126.152L235.096 126.291C236.157 126.6 236.767 127.71 236.459 128.77C236.15 129.831 235.04 130.441 233.98 130.133L233.5 129.993Z" fill="white"/>
<path fill-rule="evenodd" clip-rule="evenodd" d="M209.618 120.088C205.477 119.929 199.09 122.859 196.323 132.378C193.627 141.653 195.514 147.936 197.83 150.425L198.394 151.031L244.688 164.487C244.701 164.491 244.713 164.494 244.726 164.498L244.947 164.562L244.95 164.562C250.906 166.241 258.285 166.425 267.28 164.234L268.967 163.823L289.974 91.5496L290.001 91.2704C290.467 86.4566 287.354 78.2548 275.905 73.7508L275.859 73.5741L227.976 59.656L227.708 59.6281C223.601 59.2002 216.79 61.9662 213.908 71.8818C211.212 81.1568 213.099 87.4401 215.414 89.9284L215.978 90.5344L219.022 91.419C215.41 92.8665 211.48 96.474 209.496 103.302C207.04 111.751 208.013 117.047 209.618 120.088ZM243.971 92.1768C244.613 91.8688 245.367 91.787 246.105 92.0015L247.065 92.2806L245.39 98.0421C245.082 99.1028 243.972 99.7127 242.912 99.4044L223.153 93.6613C220.638 93.4472 214.902 95.4499 212.376 104.139C209.55 113.862 211.761 118.346 213.07 119.889L235.096 126.292C236.157 126.6 236.767 127.71 236.459 128.77C236.15 129.831 235.04 130.441 233.98 130.133L209.813 123.108C207.331 122.85 201.735 124.509 199.204 133.215C196.673 141.922 198.698 146.953 200.026 148.381L245.053 161.469L245.062 161.467C250.538 163.166 257.605 163.503 266.57 161.319L287.015 90.9816C287.346 87.5602 285.011 80.0017 273.4 76.0257L273.388 75.9801L227.397 62.6119C224.915 62.3533 219.319 64.0128 216.788 72.7191C214.258 81.4254 216.282 86.4571 217.61 87.8847L242.107 95.0052L242.387 94.0449C242.635 93.1917 243.228 92.533 243.971 92.1768Z" fill="black"/>
<path fill-rule="evenodd" clip-rule="evenodd" d="M270.443 129.064C270.083 134.552 271.578 140.052 273.733 144.816C276.123 150.1 279.24 154.286 281.185 156.286C281.955 157.078 281.938 158.344 281.146 159.114C280.355 159.884 279.088 159.867 278.318 159.075C276.032 156.726 272.66 152.149 270.088 146.464C268.084 142.035 266.514 136.815 266.396 131.369C264.353 130.832 262.123 131.039 260.128 132.125C258.183 133.184 256.166 134.33 254.534 135.362C252.765 136.482 250.571 138.024 248.513 139.519C247.101 140.545 246.093 141.917 245.517 143.438C245.502 145.484 245.622 147.585 245.874 149.718C245.915 150.069 245.96 150.42 246.008 150.772C247.184 159.328 250.439 168.338 255.509 176.35C268.383 196.695 288.081 202.889 302.957 193.476C308.725 189.825 312.501 183.964 314.211 176.968C311.102 174.925 308.117 171.779 305.623 167.233C299.318 155.74 304.34 145.367 308.172 141.288C308.928 140.483 310.194 140.443 310.999 141.199C311.804 141.955 311.844 143.221 311.088 144.026C308.07 147.239 303.892 155.761 309.13 165.309C311.364 169.382 313.95 172.062 316.556 173.732C320.456 175.57 324.963 176.007 329.332 174.943C329.519 174.845 329.698 174.742 329.866 174.636C330.308 174.356 330.819 174.271 331.297 174.359C332.765 173.842 334.203 173.148 335.583 172.275C346.278 165.508 346.851 152.387 336.825 136.543C336.798 136.5 336.77 136.457 336.743 136.415C336.715 136.369 336.686 136.324 336.658 136.278L328.303 123.075C318.335 107.324 297.487 102.635 281.736 112.602C275.635 116.463 271.747 122.5 270.443 129.064Z" fill="white"/>
<path fill-rule="evenodd" clip-rule="evenodd" d="M267.486 128.554L267.5 128.479C268.958 121.144 273.308 114.386 280.132 110.068C297.283 99.2146 319.985 104.32 330.838 121.471L339.193 134.675C339.221 134.72 339.25 134.765 339.278 134.811C339.305 134.853 339.333 134.896 339.36 134.939C344.553 143.146 347.23 150.991 346.972 157.924C346.709 165.025 343.366 170.901 337.187 174.811C335.617 175.804 333.975 176.596 332.294 177.189L331.54 177.455L331.128 177.379C330.995 177.455 330.86 177.53 330.723 177.602L330.398 177.772L330.041 177.858C325.735 178.907 321.28 178.691 317.23 177.251L317.125 177.681C315.264 185.293 311.096 191.876 304.561 196.011C287.776 206.632 266.373 199.129 252.974 177.954C247.681 169.59 244.272 160.174 243.036 151.181C242.985 150.81 242.938 150.44 242.894 150.07C242.629 147.82 242.501 145.594 242.517 143.416L242.521 142.878L242.711 142.375C243.488 140.325 244.85 138.473 246.75 137.093C248.821 135.588 251.077 134 252.93 132.828C254.643 131.744 256.726 130.562 258.694 129.491C261.391 128.022 264.41 127.746 267.159 128.468L267.486 128.554ZM336.743 136.415C336.715 136.37 336.686 136.324 336.658 136.279L328.303 123.075C318.335 107.324 297.487 102.636 281.736 112.603C275.635 116.463 271.747 122.501 270.443 129.064C270.083 134.553 271.578 140.052 273.733 144.816C276.123 150.1 279.24 154.287 281.185 156.286C281.955 157.078 281.938 158.344 281.146 159.114C280.355 159.885 279.088 159.867 278.318 159.076C276.032 156.726 272.66 152.149 270.088 146.465C268.084 142.035 266.514 136.815 266.396 131.37C264.353 130.833 262.123 131.039 260.128 132.125C258.183 133.185 256.166 134.33 254.534 135.363C252.765 136.482 250.571 138.025 248.513 139.52C247.101 140.545 246.093 141.917 245.517 143.438C245.502 145.484 245.622 147.585 245.874 149.719C245.915 150.069 245.96 150.42 246.008 150.772C247.184 159.328 250.439 168.339 255.509 176.35C268.383 196.695 288.081 202.889 302.957 193.476C308.725 189.826 312.501 183.964 314.211 176.968C311.102 174.925 308.117 171.78 305.623 167.234C299.318 155.74 304.34 145.368 308.172 141.288C308.928 140.483 310.194 140.443 310.999 141.2C311.804 141.956 311.844 143.221 311.088 144.027C308.07 147.24 303.892 155.762 309.13 165.31C311.364 169.382 313.95 172.063 316.556 173.732C320.456 175.57 324.963 176.007 329.332 174.944C329.519 174.845 329.698 174.743 329.866 174.636C330.308 174.356 330.819 174.271 331.297 174.359C332.765 173.842 334.203 173.149 335.583 172.276C346.278 165.508 346.851 152.387 336.825 136.543C336.798 136.5 336.77 136.458 336.743 136.415Z" fill="black"/>
<path fill-rule="evenodd" clip-rule="evenodd" d="M343.694 257.888L278.047 254.91C272.339 254.651 265.958 237.678 266.951 215.796C267.943 193.914 279.791 174.43 300.721 175.38C317.466 176.139 324.277 188.524 325.589 194.621C328.623 192.13 327.687 190.354 326.761 188.596C326.176 187.484 325.594 186.38 326.021 185.107C327.123 181.821 337.458 174.662 337.934 174.684C338.41 174.706 358.822 176.585 357.98 195.137C357.54 204.848 352.632 211.077 347.759 214.644L333.319 220.216L333.324 220.229L333.318 220.229L332.881 229.869L333.88 229.914C335.535 229.989 336.938 228.708 337.013 227.053L337.196 223.007L347.424 219.061C348.489 219.234 349.345 219.404 349.723 219.55C351.128 220.09 356.75 222.252 355.952 239.853C355.314 253.934 347.514 257.743 343.694 257.888ZM291.4 217.477L291.354 218.476L305.34 219.11L305.385 218.111C305.46 216.456 304.18 215.053 302.524 214.978L294.533 214.616C292.877 214.541 291.475 215.822 291.4 217.477Z" fill="white"/>
<path fill-rule="evenodd" clip-rule="evenodd" d="M343.683 260.89L277.911 257.907C275.039 257.777 272.838 255.662 271.312 253.492C269.685 251.18 268.268 248.033 267.122 244.354C264.82 236.967 263.444 226.9 263.954 215.66C264.471 204.268 267.814 193.294 273.973 185.208C280.197 177.035 289.292 171.858 300.857 172.383C311.921 172.884 319.107 178.01 323.419 183.547C323.707 182.926 324.086 182.366 324.444 181.896C324.941 181.245 325.535 180.593 326.158 179.969C327.404 178.721 328.914 177.438 330.352 176.301C331.799 175.158 333.226 174.122 334.335 173.364C334.886 172.987 335.382 172.664 335.776 172.425C335.968 172.309 336.175 172.189 336.371 172.088C336.465 172.041 336.609 171.971 336.776 171.906L336.779 171.904C336.824 171.886 337.375 171.655 338.07 171.687C338.586 171.71 344.306 172.247 349.901 175.335C352.738 176.901 355.649 179.182 357.788 182.487C359.949 185.826 361.214 190.046 360.977 195.273C360.508 205.617 355.433 212.488 350.201 216.559C350.421 216.619 350.624 216.682 350.8 216.75L350.804 216.751C351.236 216.918 352.18 217.28 353.243 218.106C354.306 218.933 355.387 220.14 356.317 221.904C358.149 225.376 359.36 230.925 358.949 239.989C358.252 255.37 349.432 260.672 343.807 260.885L343.683 260.89ZM347.759 214.644C352.632 211.077 357.54 204.848 357.98 195.137C358.822 176.585 338.41 174.705 337.934 174.684C337.458 174.662 327.123 181.82 326.021 185.107C325.594 186.38 326.176 187.484 326.761 188.596C327.183 189.397 327.608 190.203 327.657 191.078C327.715 192.122 327.24 193.266 325.589 194.621C325.386 193.677 325.051 192.581 324.567 191.402C321.929 184.966 314.872 176.021 300.721 175.379C279.791 174.43 267.943 193.913 266.951 215.796C265.958 237.678 272.339 254.651 278.047 254.91L343.694 257.887C347.514 257.743 355.314 253.934 355.952 239.853C356.751 222.252 351.128 220.09 349.723 219.55C349.345 219.404 348.489 219.234 347.424 219.061L337.196 223.007L337.013 227.053C336.972 227.941 336.55 228.721 335.912 229.242C335.361 229.692 334.647 229.949 333.88 229.914L332.881 229.869L333.318 220.229L333.324 220.229L333.319 220.216L333.324 220.214L347.759 214.644ZM304.713 216.078C305.163 216.63 305.42 217.343 305.385 218.111L305.34 219.11L291.354 218.476L291.4 217.477C291.435 216.709 291.755 216.022 292.253 215.513C292.83 214.925 293.645 214.575 294.533 214.616L302.524 214.978C303.412 215.018 304.192 215.44 304.713 216.078Z" fill="black"/>
<path fill-rule="evenodd" clip-rule="evenodd" d="M276.188 261.443L288.367 247.517L288.367 247.516L292.426 242.874C293.708 240.733 294.565 234.959 287.74 228.991C280.915 223.023 275.499 222.734 273.644 223.336L242.778 258.634L242.775 258.643C238.924 262.891 235.636 269.155 233.832 278.205L288.972 326.423C291.934 328.167 299.772 329.239 308.277 320.391L308.323 320.4L309.46 319.099L339.851 284.346C341.133 282.205 341.99 276.431 335.165 270.463C328.34 264.494 322.924 264.206 321.069 264.808L315.466 271.215L304.276 284.012L305.028 284.67C306.276 285.761 306.403 287.656 305.312 288.903L304.654 289.656L300.137 285.706C299.305 284.979 299.221 283.716 299.948 282.884L300.277 282.508L312.455 268.582L313.493 267.395C314.748 265.206 315.353 259.16 308.542 253.203C300.919 246.538 295.921 246.65 293.97 247.185L291.379 250.148L291.378 250.15L279.199 264.076L278.87 264.452C278.143 265.284 276.88 265.369 276.048 264.641C275.217 263.914 275.132 262.651 275.859 261.819L276.188 261.443Z" fill="white"/>
<path fill-rule="evenodd" clip-rule="evenodd" d="M295.246 243.972C297.138 240.285 297.177 233.258 289.715 226.733C282.444 220.375 275.951 219.434 272.718 220.483L271.931 220.739L240.195 257.03C240.186 257.04 240.178 257.05 240.169 257.06L240.017 257.233L240.017 257.235C235.981 261.926 232.7 268.539 230.89 277.618L230.551 279.321L287.208 328.866L287.45 329.008C291.618 331.462 300.367 332.101 309.282 323.622L309.462 323.655L342.287 286.118L342.425 285.887C344.546 282.344 344.913 275.002 337.14 268.204C329.869 261.846 323.376 260.905 320.143 261.955L319.356 262.21L317.269 264.596C317.481 260.711 315.869 255.626 310.516 250.945C303.893 245.153 298.681 243.801 295.246 243.972ZM306.053 286.895C306.062 287.607 305.818 288.325 305.312 288.904L304.654 289.656L300.137 285.707C299.306 284.98 299.221 283.716 299.948 282.885L313.493 267.395C314.748 265.206 315.353 259.16 308.542 253.204C300.919 246.538 295.921 246.65 293.97 247.185L278.87 264.453C278.143 265.284 276.88 265.369 276.048 264.642C275.217 263.915 275.132 262.651 275.859 261.82L292.426 242.874C293.708 240.734 294.565 234.96 287.74 228.991C280.915 223.023 275.499 222.735 273.644 223.337L242.778 258.634L242.775 258.643C238.924 262.891 235.636 269.155 233.832 278.205L288.972 326.423C291.934 328.167 299.772 329.239 308.277 320.391L308.323 320.4L339.851 284.346C341.133 282.205 341.99 276.431 335.165 270.463C328.34 264.494 322.924 264.206 321.069 264.808L304.276 284.012L305.028 284.67C305.697 285.255 306.044 286.071 306.053 286.895Z" fill="black"/>
<path fill-rule="evenodd" clip-rule="evenodd" d="M233.639 282.656C229.938 277.918 220.033 269.159 209.666 271.625C197.661 274.481 194.215 280.505 192.89 282.822C192.779 283.015 192.684 283.182 192.599 283.32C191.498 285.109 201.468 327.016 230.708 353.65C237.176 355.165 260.227 355.788 269.725 344.368C279.222 332.947 277.853 295.101 275.172 277.416C272.492 259.732 254.189 253.398 236.709 269.772L236.591 270.273L240.715 318.337C240.809 319.438 239.993 320.407 238.893 320.501C237.792 320.595 236.824 319.78 236.729 318.679L233.639 282.656Z" fill="white"/>
<path fill-rule="evenodd" clip-rule="evenodd" d="M234.315 278.835C232.19 276.541 229.202 273.915 225.665 271.848C221.061 269.159 215.184 267.228 208.972 268.706C202.553 270.233 198.251 272.653 195.328 275.141C192.401 277.634 191.002 280.08 190.287 281.33L190.286 281.332C190.167 281.539 190.098 281.659 190.044 281.747C189.628 282.424 189.562 283.11 189.542 283.321C189.511 283.648 189.514 283.973 189.528 284.255C189.555 284.827 189.639 285.507 189.761 286.248C190.006 287.745 190.445 289.736 191.08 292.097C192.354 296.831 194.457 303.204 197.518 310.349C203.626 324.609 213.641 342.162 228.687 355.868L229.264 356.393L230.024 356.571C233.681 357.428 241.441 357.954 249.495 356.831C257.476 355.717 266.552 352.874 272.031 346.286C274.877 342.864 276.697 337.779 277.893 332.204C279.107 326.546 279.754 320.007 280.013 313.357C280.53 300.062 279.506 285.99 278.138 276.967C276.648 267.133 270.676 259.994 262.208 257.909C253.83 255.846 243.884 258.94 234.658 267.582L233.995 268.203L233.561 270.054L234.315 278.835ZM230.708 353.65C201.468 327.016 191.498 285.108 192.599 283.32C192.684 283.182 192.779 283.015 192.89 282.822C194.215 280.505 197.661 274.481 209.666 271.625C220.033 269.158 229.938 277.918 233.639 282.656L236.729 318.679C236.824 319.78 237.792 320.595 238.893 320.501C239.993 320.406 240.809 319.438 240.715 318.337L236.591 270.273L236.709 269.772C254.189 253.398 272.492 259.732 275.172 277.416C277.853 295.101 279.222 332.947 269.725 344.367C260.227 355.788 237.176 355.165 230.708 353.65Z" fill="black"/>
<path fill-rule="evenodd" clip-rule="evenodd" d="M209.72 278.484C195.099 258.862 169.86 256.958 159.068 258.458C146.091 276.542 120.1 313.905 119.956 318.693C120.581 341.433 158.808 343.137 157.576 339.622C156.591 336.815 158.657 330.994 159.819 328.416C155.237 325.796 151.968 322.387 150.299 319.937C149.521 318.796 149.816 317.24 150.957 316.463C152.098 315.686 153.654 315.98 154.431 317.122C157.322 321.365 166.396 329.334 179.099 326.836C180.453 326.57 181.768 327.452 182.034 328.807C182.3 330.161 181.418 331.476 180.063 331.742C174.721 332.793 169.924 332.316 165.79 331.028C161.017 344.493 168.584 351.757 179.253 355.546C189.985 359.356 199.846 357.631 202.607 353.965C213.845 285.738 213.221 282.896 209.72 278.484ZM179.457 284.684L178.527 284.317L173.38 297.336L174.31 297.704C175.851 298.313 177.594 297.558 178.203 296.017L181.144 288.577C181.753 287.036 180.998 285.293 179.457 284.684Z" fill="white"/>
<path fill-rule="evenodd" clip-rule="evenodd" d="M157.381 255.664L158.655 255.487C164.447 254.682 173.881 254.804 183.791 257.668C193.722 260.538 204.304 266.214 212.099 276.655C213.122 277.949 214.115 279.393 214.612 281.979C215.069 284.355 215.09 287.597 214.68 292.542C213.857 302.479 211.179 320.381 205.567 354.452L205.447 355.18L205.003 355.769C202.853 358.625 198.627 360.105 194.216 360.544C189.599 361.004 184.008 360.417 178.25 358.373C172.635 356.379 167.372 353.322 164.229 348.571C160.976 343.655 160.33 337.451 162.962 330.025L163.645 328.098C163.536 328.051 163.427 328.003 163.319 327.954L162.554 329.65C162.03 330.812 161.288 332.744 160.801 334.669C160.557 335.63 160.395 336.521 160.339 337.273C160.28 338.068 160.356 338.486 160.406 338.629C160.658 339.346 160.687 340.166 160.396 340.964C160.125 341.707 159.655 342.214 159.271 342.531C158.557 343.12 157.708 343.406 157.105 343.565C155.805 343.909 154.107 344.043 152.287 344.032C148.58 344.01 143.615 343.373 138.605 341.878C128.844 338.965 117.327 332.22 116.957 318.775L116.955 318.689L116.957 318.602C116.982 317.789 117.241 316.98 117.465 316.379C117.716 315.705 118.058 314.948 118.457 314.141C119.257 312.524 120.381 310.524 121.727 308.268C124.425 303.744 128.126 298.011 132.204 291.897C140.367 279.659 150.13 265.768 156.631 256.709L157.381 255.664ZM209.72 278.484C195.099 258.862 169.86 256.958 159.068 258.458C146.091 276.542 120.1 313.905 119.956 318.693C120.581 341.433 158.808 343.137 157.576 339.622C156.591 336.815 158.657 330.994 159.819 328.416C155.237 325.796 151.968 322.387 150.299 319.937C149.521 318.796 149.816 317.241 150.957 316.463C152.098 315.686 153.654 315.981 154.431 317.122C157.322 321.365 166.396 329.334 179.099 326.836C180.453 326.57 181.768 327.452 182.034 328.807C182.3 330.162 181.418 331.476 180.063 331.742C174.721 332.793 169.924 332.316 165.79 331.028C165.521 331.785 165.292 332.522 165.1 333.24C165.041 333.463 164.985 333.684 164.932 333.903C162.148 345.544 169.369 352.036 179.253 355.546C189.985 359.356 199.846 357.631 202.607 353.965C213.845 285.738 213.221 282.896 209.72 278.484ZM176.451 297.729C175.782 297.975 175.024 297.986 174.31 297.704L173.38 297.336L178.527 284.317L179.457 284.684C180.172 284.967 180.717 285.493 181.036 286.13C181.405 286.866 181.471 287.751 181.144 288.577L178.203 296.017C177.876 296.843 177.223 297.443 176.451 297.729Z" fill="black"/>
<path fill-rule="evenodd" clip-rule="evenodd" d="M140.469 208.47L178.521 271.06C168.975 292.203 153.507 288.899 146.966 284.605L139.676 272.615L131.884 259.798L131.029 260.317C129.614 261.178 129.164 263.023 130.024 264.439L136.258 274.693L98.0023 297.951C95.1738 297.937 87.7724 295.039 80.7945 283.562C73.8166 272.084 77.4274 264.418 80.105 262.02L118.897 238.436L109.664 223.25C109.489 220.537 111.576 213.629 121.332 207.697C131.088 201.766 138.155 205.741 140.469 208.47Z" fill="white"/>
<path fill-rule="evenodd" clip-rule="evenodd" d="M181.906 270.852L181.256 272.294C176.19 283.514 169.271 288.775 162.255 290.303C155.412 291.793 149.094 289.591 145.319 287.112L144.754 286.741L138.671 276.736L98.8357 300.955L97.9872 300.951C95.7608 300.94 92.6136 299.887 89.2299 297.51C85.7729 295.081 81.9062 291.165 78.231 285.12C70.6341 272.625 74.1713 263.307 78.1033 259.785L78.3097 259.6L114.775 237.431L106.718 224.179L106.671 223.444C106.403 219.311 109.357 211.467 119.774 205.134C130.873 198.386 139.553 202.751 142.757 206.53L142.91 206.71L181.906 270.852ZM129.717 262.009C129.924 261.328 130.372 260.718 131.027 260.318C131.028 260.318 131.029 260.317 131.029 260.317L131.884 259.797L146.966 284.604C153.507 288.899 168.975 292.203 178.521 271.059L140.469 208.47C138.155 205.741 131.088 201.766 121.332 207.697C111.576 213.628 109.489 220.537 109.664 223.25L118.897 238.436L80.105 262.02C77.4274 264.418 73.8166 272.084 80.7945 283.562C87.7723 295.039 95.1738 297.937 98.0022 297.951L136.258 274.693L130.024 264.439C129.563 263.68 129.478 262.797 129.717 262.009Z" fill="black"/>
<path fill-rule="evenodd" clip-rule="evenodd" d="M127.13 198.634L124.49 216.944L124.49 216.946L123.609 223.048C123.699 225.542 126.121 230.853 135.095 232.147C144.069 233.441 148.77 230.736 149.998 229.222L156.691 182.812L156.688 182.803C157.608 177.143 156.959 170.099 153.549 161.525L81.0497 151.069C77.6156 151.218 70.4557 154.583 68.1345 166.633L68.091 166.652L67.8444 168.361L61.2546 214.056C61.344 216.549 63.7663 221.86 72.7401 223.155C81.7139 224.449 86.4148 221.744 87.6436 220.229L88.8584 211.806L91.2849 194.98L90.2952 194.837C88.6553 194.601 87.5176 193.079 87.7541 191.44L87.8968 190.45L93.8354 191.306C94.9287 191.464 95.6871 192.478 95.5295 193.571L95.4581 194.066L92.8174 212.377L92.5925 213.936C92.7305 216.457 95.5121 221.858 104.468 223.15C114.49 224.595 118.622 221.782 119.969 220.271L120.53 216.376L120.531 216.373L123.171 198.063L123.243 197.568C123.4 196.475 124.414 195.716 125.508 195.874C126.601 196.031 127.359 197.046 127.202 198.139L127.13 198.634Z" fill="white"/>
<path fill-rule="evenodd" clip-rule="evenodd" d="M120.646 223.661C121.065 227.783 124.856 233.701 134.667 235.116C144.227 236.495 150.186 233.751 152.328 231.112L152.85 230.469L159.731 182.752C159.733 182.739 159.735 182.727 159.737 182.714L159.77 182.485L159.769 182.483C160.603 176.351 159.758 169.019 156.336 160.416L155.695 158.803L81.2003 148.059L80.92 148.072C76.0883 148.281 68.3995 152.504 65.533 164.469L65.3645 164.539L58.2468 213.894L58.2565 214.163C58.4045 218.29 62.0916 224.649 72.3119 226.123C81.8719 227.502 87.8313 224.759 89.9731 222.119L90.4947 221.476L90.9471 218.34C92.8832 221.715 97.0026 225.104 104.04 226.119C112.749 227.375 117.857 225.674 120.646 223.661ZM88.2247 193.528C87.8303 192.935 87.6444 192.2 87.7541 191.439L87.8968 190.449L93.8354 191.306C94.9287 191.463 95.6871 192.478 95.5294 193.571L92.5925 213.936C92.7305 216.456 95.5121 221.858 104.468 223.15C114.49 224.595 118.622 221.781 119.969 220.271L123.243 197.567C123.4 196.474 124.414 195.716 125.508 195.873C126.601 196.031 127.359 197.045 127.202 198.138L123.609 223.048C123.699 225.541 126.121 230.852 135.095 232.147C144.069 233.441 148.77 230.736 149.998 229.221L156.691 182.812L156.688 182.803C157.608 177.143 156.959 170.099 153.549 161.524L81.0497 151.069C77.6155 151.217 70.4557 154.582 68.1345 166.633L68.0909 166.651L61.2546 214.055C61.344 216.549 63.7663 221.86 72.7401 223.154C81.7139 224.448 86.4148 221.743 87.6436 220.229L91.2849 194.979L90.2952 194.837C89.4158 194.71 88.6808 194.214 88.2247 193.528Z" fill="black"/>
<path fill-rule="evenodd" clip-rule="evenodd" d="M174.775 161.291L172.391 138.151C172.278 137.058 173.073 136.08 174.167 135.968C175.26 135.855 176.238 136.65 176.351 137.744L177.531 149.203L185.022 154.985C203.266 154.083 214.018 139.484 217.113 132.298L191.799 74.3775C190.95 72.4116 188.468 68.2656 185.33 67.409C162.998 63.1024 147.592 78.7016 142.681 87.0394L148.414 98.6082C152.818 96.848 156.998 96.3293 159.721 96.4236C161.101 96.4714 162.181 97.6287 162.133 99.0086C162.085 100.388 160.928 101.468 159.548 101.421C154.444 101.244 142.714 103.835 137.247 115.493C136.661 116.743 135.172 117.282 133.922 116.695C132.672 116.109 132.134 114.62 132.72 113.37C134.465 109.649 136.731 106.697 139.236 104.371C137.347 99.2128 130.346 90.8131 116.825 97.2162C103.152 103.691 97.2869 114.059 96.0637 118.434L136.338 173.085C150.11 186.954 167.623 171.094 174.775 161.291Z" fill="white"/>
<path fill-rule="evenodd" clip-rule="evenodd" d="M177.877 162.129L177.198 163.059C173.462 168.181 166.952 175.006 159.368 178.754C155.545 180.644 151.288 181.83 146.897 181.461C142.44 181.086 138.113 179.13 134.209 175.198L134.054 175.042L92.7803 119.035L93.1745 117.626C94.6316 112.415 101.082 101.352 115.541 94.5048C123.011 90.967 129.15 91.3498 133.795 93.8061C138.276 96.1759 140.918 100.24 142.053 103.34L142.407 104.307C143.762 103.258 145.166 102.379 146.573 101.648L139.271 86.9162L140.096 85.5167C145.324 76.6405 161.788 59.8137 185.898 64.4632L186.01 64.4848L186.121 64.5148C188.601 65.1921 190.502 67.0341 191.76 68.5956C193.068 70.22 194.032 71.9844 194.55 73.1817C194.551 73.1839 194.552 73.1862 194.553 73.1884L220.383 132.289L219.869 133.485C216.542 141.208 205.026 157 185.171 157.982L184.065 158.036L176.884 152.494L177.877 162.129ZM191.799 74.3775C190.95 72.4115 188.468 68.2655 185.33 67.4089C162.999 63.1024 147.592 78.7016 142.681 87.0394L148.414 98.6081C152.818 96.848 156.998 96.3292 159.721 96.4235C161.101 96.4713 162.181 97.6287 162.133 99.0086C162.085 100.388 160.928 101.468 159.548 101.421C154.444 101.244 142.714 103.835 137.247 115.493C136.661 116.743 135.172 117.282 133.922 116.695C132.672 116.109 132.134 114.62 132.72 113.37C134.465 109.649 136.731 106.697 139.236 104.371C137.347 99.2128 130.346 90.813 116.825 97.2161C103.152 103.691 97.2869 114.059 96.0636 118.434L136.338 173.085C150.11 186.953 167.623 171.094 174.775 161.291L172.391 138.151C172.278 137.058 173.074 136.08 174.167 135.968C175.26 135.855 176.238 136.65 176.351 137.743L177.531 149.203L185.022 154.985C203.266 154.083 214.018 139.484 217.113 132.298L191.799 74.3775Z" fill="black"/>
<path d="M10.1821 255.469C7.47499 255.485 5.45453 257.24 5.70441 259.562C5.95247 262.017 7.37505 263.832 10.0711 263.641L23.9954 262.544L12.5129 270.334C10.5107 271.728 10.2466 273.412 10.7736 275.068C11.3005 276.723 12.5725 277.786 14.918 277.75L28.6295 277.521L16.8202 284.704C14.4822 286.16 14.4091 288.584 15.6261 290.731C16.7643 292.77 19.4787 293.196 21.6571 291.658L39.6599 279.346L37.1538 271.473L22.4016 271.366L34.442 262.954L31.9359 255.081L10.1821 255.469Z" fill="white"/>
<path d="M27.7826 219.536C27.6018 216.448 26.5376 213.497 25.6546 212.19C24.3514 210.229 22.5153 209.318 20.4947 210.328C19.258 210.952 18.8297 212.335 19.0831 213.764C19.2098 214.478 19.5854 215.092 19.834 215.714C20.2816 216.834 20.5028 217.713 20.6242 219.785C20.7431 221.816 19.9338 224.664 17.0574 224.833L17.0151 224.835L16.1282 209.692C15.4017 209.607 14.2124 209.592 13.4933 209.634C2.28413 210.291 0.339401 216.22 0.683759 222.099C1.00087 227.513 4.09694 233.996 13.1066 233.468L16.8289 233.25C25.6693 232.732 28.1418 225.669 27.7826 219.536ZM7.53369 221.656C7.42468 219.794 8.25616 218.048 11.0553 218.011L11.474 225.16C8.67979 225.281 7.64269 223.517 7.53369 221.656Z" fill="white"/>
<path d="M33.4104 160.597L18.6842 155.471C16.1509 154.5 15.8694 152.473 16.3151 151.192C16.7747 149.872 18.2939 148.471 21.0151 149.418L35.5413 154.474L38.2989 146.551L23.7727 141.495C21.0515 140.548 20.7439 138.467 21.2035 137.146C21.6631 135.826 23.1824 134.425 25.9035 135.373L40.4297 140.428L43.2987 132.185L29.2527 127.296C20.8892 124.385 16.7421 127.922 14.9734 133.004C13.8453 136.246 14.118 138.943 15.2677 141.182C12.6819 142.166 11.0599 144.249 10.2103 146.69C9.47218 148.811 9.55008 151.036 10.4615 153.058C8.79801 153.197 7.52238 154.413 6.97923 155.974C6.24109 158.095 6.93316 160.489 9.57429 161.408L30.5832 168.72L33.4104 160.597Z" fill="white"/>
<path d="M64.6584 98.2229L52.0722 89.7563C44.4782 84.648 39.6581 87.942 36.2289 93.0398C34.6207 95.4305 33.1615 98.7384 33.2792 101.524C33.3656 103.369 34.4286 104.902 36.2842 105.18C38.1162 105.493 39.8618 103.961 40.0804 102.269C40.2248 101.447 40.2862 100.825 40.4888 100.144C40.8103 99.1345 41.1426 98.3368 41.6866 97.5281C42.8218 95.8406 44.3776 94.7424 46.4991 96.0674L44.0632 99.6886C40.9888 104.259 39.9566 109.437 45.2653 113.008C50.785 116.721 55.2523 113.496 57.2152 110.578L57.7355 109.805C59.1545 107.695 59.623 105.253 59.256 103.066L60.9218 103.778L64.6584 98.2229ZM52.9329 100.395C54.4095 101.389 54.166 103.421 53.291 104.721L52.9599 105.214C52.1321 106.444 51.073 106.804 49.9128 106.024C48.7878 105.267 48.6164 104.079 49.5151 102.743L51.6672 99.5439L52.9329 100.395Z" fill="white"/>
<path d="M75.1996 85.6295L81.3465 79.7961L76.7965 75.0015L76.9489 71.4688L87.1861 74.2544L94.1321 67.6626L77.3355 63.5665L77.6883 55.8132C77.8046 53.6583 75.5494 51.6512 73.3252 51.8927C71.101 52.1342 69.4564 54.279 69.5197 56.4386L69.7673 67.5944L59.6172 56.8988C57.6922 54.8703 55.256 55.1962 53.6578 56.7128C52.0596 58.2295 51.5452 60.7037 53.4703 62.7322L75.1996 85.6295Z" fill="white"/>
<path d="M118.089 52.4927C120.742 50.9029 122.865 48.5933 123.614 47.2059C124.749 45.1428 124.707 43.0936 122.876 41.77C121.751 40.9627 120.326 41.2235 119.177 42.1093C118.603 42.5522 118.232 43.1697 117.796 43.6781C117.011 44.5932 116.334 45.1959 114.553 46.2631C112.809 47.3084 109.909 47.9098 108.428 45.4383L108.406 45.402L121.418 37.6054C121.157 36.9221 120.62 35.8609 120.25 35.243C114.479 25.6113 108.323 26.6322 103.271 29.6594C98.6187 32.447 94.3062 38.1924 98.9449 45.9341L100.861 49.1325C105.413 56.7288 112.818 55.6505 118.089 52.4927ZM106.835 35.5257C108.435 34.5675 110.368 34.4959 111.696 36.9601L105.553 40.6406C104.152 38.22 105.236 36.4839 106.835 35.5257Z" fill="white"/>
<path d="M174.67 37.7508L173.118 29.4199C174.902 30.208 176.977 30.468 179.059 30.0799C184.558 29.0553 188.718 25.4784 187.081 16.6893L186.382 12.9405C184.744 4.15142 179.574 2.31324 174.076 3.33784C171.993 3.72594 169.85 4.94429 168.505 6.74656C167.517 5.37897 165.828 4.87473 164.204 5.17745C161.996 5.58885 160.261 7.37767 160.773 10.1268L166.214 39.3265L174.67 37.7508ZM178.608 18.8715C179.136 21.704 177.19 23.0579 175.733 23.3296C174.316 23.5935 172.021 23.073 171.441 20.4226L170.486 15.2991C169.959 12.4666 171.946 11.105 173.404 10.8333C174.862 10.5616 177.165 11.1238 177.693 13.9563L178.608 18.8715Z" fill="white"/>
<path d="M214.995 26.6491L215.294 11.7374C215.463 9.62184 216.888 8.33662 219.221 8.21387C219.815 8.1834 220.576 8.24105 221.17 8.25294C223.034 8.2903 224.584 7.04999 224.921 5.06489C225.257 3.07978 224.359 1.36659 222.763 0.656512C222.132 0.389595 221.414 0.290434 220.779 0.277695C218.703 0.236084 216.694 1.08579 215.097 2.53706C214.408 0.955205 212.857 0.118891 211.205 0.0857714C208.959 0.0407626 206.897 1.44033 206.841 4.23628L206.395 26.4767L214.995 26.6491Z" fill="white"/>
<path d="M241.66 17.7062C239.634 26.5878 245.535 30.6287 251.029 31.8823C256.523 33.1358 263.593 32.0544 265.62 23.1728L266.487 19.3723C268.513 10.4907 262.612 6.44976 257.118 5.1962C251.5 3.91437 244.554 5.02409 242.527 13.9057L241.66 17.7062ZM257.232 21.6501C256.563 24.5831 254.398 25.3062 252.622 24.9009C250.846 24.4956 249.21 22.9054 249.879 19.9724L250.915 15.4284C251.585 12.4954 253.749 11.7723 255.525 12.1775C257.301 12.5828 258.938 14.1731 258.269 17.1061L257.232 21.6501Z" fill="white"/>
<path d="M292.816 10.8246C291.692 13.3855 293.112 15.2115 295.285 16.1648C297.458 17.1182 299.763 16.9265 300.886 14.3657C302.01 11.8048 300.59 9.97882 298.417 9.02546C296.244 8.07211 293.939 8.26378 292.816 10.8246ZM296.769 23.4328C297.944 20.7555 296.648 18.7526 294.553 17.8333C292.458 16.914 290.106 17.3166 288.931 19.9939L280.539 39.1227C280.045 40.2479 279.293 40.3806 278.737 40.2757C278.565 40.2464 278.199 40.132 278.043 40.0639C276.957 39.5872 275.406 40.0635 274.578 41.3194C273.608 42.7911 273.718 44.2275 274.493 45.3079C275.186 46.2597 275.851 46.6438 276.898 47.1034C281.826 49.2655 286.112 47.7221 288.376 42.5616L296.769 23.4328Z" fill="white"/>
<path d="M314.907 59.7734C317.469 61.5072 320.459 62.4567 322.033 62.55C324.382 62.7076 326.222 61.8039 326.649 59.5858C326.905 58.2244 326.067 57.0433 324.779 56.3761C324.135 56.0425 323.419 55.9669 322.774 55.7861C321.613 55.4606 320.781 55.1022 319.061 53.9384C317.377 52.7984 315.608 50.4238 317.223 48.0377L317.246 48.0026L329.808 56.5055C330.317 55.9803 331.052 55.0453 331.456 54.4488C337.75 45.1503 334.226 40.0016 329.348 36.7002C324.857 33.6601 317.828 32.1768 312.769 39.6507L310.679 42.7385C305.715 50.0721 309.819 56.3295 314.907 59.7734ZM325.536 42.4083C327.08 43.4534 327.961 45.1753 326.288 47.4199L320.358 43.406C321.961 41.1139 323.992 41.3633 325.536 42.4083Z" fill="white"/>
<path d="M352.49 71.1887C355.091 68.6973 357.285 69.7634 358.575 71.1097C359.484 72.0583 359.801 72.6345 360.112 73.5102C360.337 74.1744 360.532 74.8678 360.999 75.4772C361.814 76.5736 362.908 77.2863 364.474 76.9004C366.613 76.377 367.472 74.0879 366.981 71.7998C366.655 70.2345 365.683 68.0559 363.602 65.8835C359.557 61.661 352.847 58.7597 346.421 64.9149L343.729 67.4942C337.15 73.7959 339.913 80.4782 344.163 84.9149C346.127 86.965 348.441 88.0935 350.229 88.5515C352.494 89.1396 354.909 88.2925 355.496 86.0875C355.855 84.7466 355.281 83.5356 354.278 82.7948C353.63 82.3014 352.855 82.1049 352.23 81.8817C351.101 81.4379 350.363 80.9126 349.396 79.9028C348.047 78.4953 347.135 76.318 349.736 73.8267L352.49 71.1887Z" fill="white"/>
<path d="M369.914 103.155C364.517 106.593 364.34 110.574 367.368 115.327C368.142 116.542 369.436 117.627 370.496 118.107C371.776 118.698 373.401 118.567 374.662 117.312C375.681 116.311 375.83 114.809 375.079 113.63C374.624 112.915 374.24 112.708 373.934 112.149C373.583 111.519 373.492 110.823 374.564 110.14L383.427 104.494L384.77 106.603C386.204 108.854 388.202 108.837 389.703 107.881C391.169 106.948 392.159 105.111 390.702 102.824L389.359 100.715L393.075 98.3479C395.505 96.7999 395.498 94.3431 394.359 92.5563C393.221 90.7695 390.998 89.7241 388.568 91.2722L384.851 93.6397L384.1 92.4604C382.643 90.1733 380.56 90.2945 379.095 91.2279C377.594 92.184 376.734 93.988 378.168 96.2394L378.919 97.4187L369.914 103.155Z" fill="white"/>
<path d="M398.308 134.552C398.994 134.326 399.897 134.879 400.398 136.139C400.914 137.438 401.207 139.556 400.992 140.735C400.897 141.184 400.973 142.065 401.176 142.577C401.739 143.995 402.721 144.973 404.405 144.851C406.435 144.683 407.58 142.86 407.845 140.886C408.085 139.195 407.863 136.684 406.612 133.534C405.048 129.596 402.098 126.3 398.18 126.078C393.806 125.855 389.023 128.392 389.612 135.27C389.643 135.806 389.759 136.443 389.86 137.041C390.434 140.324 390.736 142.347 389.744 142.604C388.964 142.822 388.045 142.23 387.435 140.694C386.825 139.158 386.476 137.246 386.66 136.215C386.787 135.389 387.089 134.54 386.549 133.296C386.103 132.288 385.373 131.483 384.327 131.26C382.235 130.815 380.611 132.235 380.016 134.067C379.16 136.732 380.017 140.267 381.08 142.945C383.27 148.458 387.164 152.063 392.045 150.808C397.044 149.506 399.036 146.026 398.356 140.87C398.286 140.351 398.201 139.792 398.077 139.249C397.455 136.077 397.332 134.849 398.308 134.552Z" fill="white"/>
<path d="M394.657 204.452L413.274 203.469L413.402 205.881C413.542 208.547 415.248 209.517 417.068 209.421C418.845 209.328 420.568 208.218 420.425 205.51L420.298 203.099L421.483 203.036C422.795 202.967 423.24 203.368 423.285 204.214C423.305 204.595 423.278 204.893 423.22 205.405C423.131 206.131 423.065 206.474 423.1 207.151C423.174 208.548 424.374 209.587 425.664 209.901C427.292 210.197 428.71 209.74 429.523 208.255C430.298 206.856 430.538 204.977 430.451 203.326C430.129 197.233 427.586 194.058 420.774 194.418L419.843 194.467L419.767 193.028C419.624 190.32 417.793 189.398 416.016 189.492C414.197 189.588 412.602 190.733 412.743 193.399L412.819 194.837L394.201 195.82L394.657 204.452Z" fill="white"/>
<path d="M392.341 235.311C391.881 238.327 392.789 241.08 394.689 242.956L391.896 243.001L390.879 249.661L412.91 253.026C415.759 253.461 417.351 251.732 417.71 249.387C418.061 247.083 417.057 244.958 414.209 244.523L402.23 242.694C399.562 242.2 398.928 240.175 399.139 238.793C399.357 237.369 400.608 235.631 403.456 236.066L415.184 237.857C418.074 238.298 419.673 236.528 420.032 234.182C420.39 231.837 419.392 229.67 416.502 229.228L405.277 227.514C396.439 226.164 393.154 229.992 392.341 235.311Z" fill="white"/>
<path d="M383.124 274.932L397.416 280.616C400.093 281.68 400.279 283.852 399.746 285.19C399.214 286.529 397.604 287.941 394.926 286.876L380.634 281.192L377.409 289.302L391.228 294.798C399.536 298.102 403.598 295.112 405.586 290.112C406.416 288.025 406.514 285.602 405.707 283.503C407.391 283.397 408.718 282.238 409.329 280.702C410.159 278.615 409.572 276.193 406.973 275.16L386.303 266.939L383.124 274.932Z" fill="white"/>
<path d="M115.051 373.5C115.661 371.462 114.458 370.049 113.394 369.37C112.329 368.692 110.539 368.199 108.95 369.614L98.769 379.754L104.122 365.446C104.895 363.471 103.661 361.916 102.047 361.211C100.49 360.543 98.5221 361.029 97.778 363.022L89.7853 386.045L95.684 389.803L108.188 377.542L102.388 394.074L108.719 398.107L126.024 380.977C127.498 379.489 127.135 377.518 125.9 376.408C124.58 375.243 122.678 374.8 121.214 376.335L109.831 387.853L115.051 373.5Z" fill="white"/>
<path d="M134.219 386.94C134.541 386.187 134.796 386.111 135.518 386.419L143.454 389.815C145.304 390.607 146.598 389.49 147.148 388.204C147.699 386.918 147.622 385.104 145.802 384.326L135.42 379.883C131.656 378.273 129.95 379.138 128.406 382.745L121.843 398.084C120.3 401.691 120.852 403.523 124.616 405.133L135.312 409.71C137.131 410.488 138.497 409.292 139.047 408.006C139.597 406.72 139.511 405.013 137.661 404.221L129.411 400.691C128.69 400.382 128.569 400.145 128.891 399.392L130.461 395.722L139.024 399.386C140.875 400.178 142.169 399.062 142.706 397.807C143.242 396.553 143.165 394.738 141.346 393.96L132.783 390.296L134.219 386.94Z" fill="white"/>
<path d="M177.983 403.541C178.503 400.376 181.019 399.165 183.442 399.563C184.823 399.79 185.575 400.052 186.333 400.488C186.805 400.773 187.316 401.237 188.068 401.499C189.18 401.89 190.503 401.623 191.37 400.555C192.41 399.274 192.003 397.548 190.783 396.344C189.625 395.186 187.418 394.097 184.422 393.605C178.598 392.647 172.32 394.658 171.097 402.098L169.946 409.1C168.723 416.54 174.027 420.455 179.851 421.412C182.443 421.838 185.449 421.641 187.55 420.431C188.883 419.682 189.67 418.255 189.056 416.737C188.565 415.515 187.616 414.979 186.371 414.981C185.715 414.977 185.048 415.248 184.504 415.401C183.529 415.655 182.379 415.708 180.83 415.454C178.406 415.055 176.411 413.102 176.931 409.937L177.983 403.541Z" fill="white"/>
<path d="M221.604 404.916L221.608 404.506C221.682 398.4 217.383 395.55 211.481 395.479L205.204 395.403C201.111 395.354 199.865 396.806 199.817 400.729L199.551 422.801L206.545 422.886L206.655 413.709L211.022 413.762L216.028 423L223.738 423.093L217.388 412.132C219.829 410.626 221.564 408.157 221.604 404.916ZM206.793 402.28C206.803 401.462 207.01 401.294 207.794 401.303L211.24 401.345C213.526 401.372 214.702 402.854 214.681 404.593L214.678 404.832C214.657 406.572 213.445 408.025 211.16 407.997L206.725 407.943L206.793 402.28Z" fill="white"/>
<path d="M237.104 400.503C236.991 399.692 237.17 399.494 237.947 399.386L246.496 398.192C248.489 397.913 249.02 396.289 248.827 394.903C248.633 393.518 247.63 392.005 245.67 392.278L234.485 393.841C230.431 394.407 229.417 396.03 229.96 399.916L232.268 416.439C232.811 420.325 234.23 421.608 238.285 421.041L249.807 419.432C251.767 419.158 252.318 417.427 252.124 416.042C251.931 414.657 250.975 413.24 248.981 413.519L240.095 414.76C239.318 414.868 239.091 414.728 238.978 413.917L238.426 409.964L247.65 408.675C249.644 408.396 250.175 406.772 249.986 405.421C249.797 404.069 248.793 402.556 246.834 402.829L237.609 404.118L237.104 400.503Z" fill="white"/>
<path d="M261.803 416.778L268.866 414.673L268.9 410.248L277.303 407.744L279.786 411.418L286.979 409.274L271.371 388.08C270.223 386.5 268.208 386.068 266.541 386.565C264.775 387.091 263.24 388.51 263.132 390.536L261.803 416.778ZM269.044 395.324L273.956 402.725L268.953 404.216L269.044 395.324Z" fill="white"/>
<path d="M307.187 399.686L298.05 380.305L302.772 378.08C304.562 377.236 304.573 375.42 303.977 374.155C303.38 372.889 302.047 371.821 300.226 372.679L284.364 380.157C282.543 381.015 282.519 382.724 283.115 383.989C283.712 385.254 285.12 386.401 286.91 385.557L291.631 383.331L300.768 402.712L307.187 399.686Z" fill="white"/>
<path d="M317.164 370.024C316.711 369.342 316.788 369.086 317.442 368.653L324.636 363.884C326.314 362.772 326.092 361.077 325.319 359.911C324.546 358.745 322.987 357.814 321.338 358.907L311.925 365.146C308.512 367.408 308.299 369.31 310.467 372.58L319.684 386.486C321.852 389.756 323.686 390.301 327.099 388.039L336.796 381.611C338.445 380.518 338.195 378.719 337.422 377.553C336.649 376.387 335.175 375.522 333.497 376.634L326.018 381.592C325.364 382.025 325.099 381.996 324.647 381.314L322.442 377.987L330.205 372.841C331.883 371.729 331.66 370.034 330.906 368.897C330.152 367.759 328.593 366.828 326.944 367.921L319.181 373.067L317.164 370.024Z" fill="white"/>
<path d="M67.2032 334.556C67.2032 340.079 62.726 344.556 57.2032 344.556C51.6804 344.556 47.2032 340.079 47.2032 334.556C47.2032 329.033 51.6804 324.556 57.2032 324.556C62.726 324.556 67.2032 329.033 67.2032 334.556Z" fill="#9BF952"/>
<path d="M373.203 334.556C373.203 340.079 368.726 344.556 363.203 344.556C357.68 344.556 353.203 340.079 353.203 334.556C353.203 329.033 357.68 324.556 363.203 324.556C368.726 324.556 373.203 329.033 373.203 334.556Z" fill="#9BF952"/>
</svg>
