<svg width="121" height="103" viewBox="0 0 121 103" fill="none" xmlns="http://www.w3.org/2000/svg">
<path fill-rule="evenodd" clip-rule="evenodd" d="M25.4062 0C9.88401 0 0.40625 11.5286 0.40625 25.75V103C0.40625 88.7786 9.88401 77.25 25.4062 77.25H94.4062C109.928 77.25 120.406 65.7214 120.406 51.5V25.75C120.406 11.5286 109.928 0 94.4062 0H25.4062ZM32.4062 48.0005C36.2722 48.0005 39.4062 44.8665 39.4062 41.0005C39.4062 37.1345 36.2722 34.0005 32.4062 34.0005C28.5403 34.0005 25.4062 37.1345 25.4062 41.0005C25.4062 44.8665 28.5403 48.0005 32.4062 48.0005ZM67.4062 41.0005C67.4062 44.8665 64.2722 48.0005 60.4062 48.0005C56.5403 48.0005 53.4062 44.8665 53.4062 41.0005C53.4062 37.1345 56.5403 34.0005 60.4062 34.0005C64.2722 34.0005 67.4062 37.1345 67.4062 41.0005ZM88.4062 48.0005C92.2722 48.0005 95.4062 44.8665 95.4062 41.0005C95.4062 37.1345 92.2722 34.0005 88.4062 34.0005C84.5403 34.0005 81.4062 37.1345 81.4062 41.0005C81.4062 44.8665 84.5403 48.0005 88.4062 48.0005Z" fill="#FC875E"/>
</svg>
