<svg width="138" height="600" viewBox="0 0 138 600" fill="none" xmlns="http://www.w3.org/2000/svg">
<path d="M0.649742 406C36.2595 406 33.5203 434.571 69.1301 434.571C103.37 434.571 103.37 406 137.611 406M0.649742 485.714C36.2595 485.714 33.5203 514.286 69.1301 514.286C103.37 514.286 103.37 485.714 137.611 485.714M0.649742 565.429C36.2595 565.429 33.5203 594 69.1301 594C103.37 594 103.37 565.429 137.611 565.429M0.285645 326C35.8955 326 33.1562 354.571 68.766 354.571C103.006 354.571 103.006 326 137.246 326M0.649742 86C36.2595 86 33.5203 114.571 69.1301 114.571C103.37 114.571 103.37 86 137.611 86M0.649742 165.714C36.2595 165.714 33.5203 194.286 69.1301 194.286C103.37 194.286 103.37 165.714 137.611 165.714M0.649742 245.429C36.2595 245.429 33.5203 274 69.1301 274C103.37 274 103.37 245.429 137.611 245.429M0.285645 6C35.8955 6 33.1562 34.5714 68.766 34.5714C103.006 34.5714 103.006 6 137.246 6" stroke="white" stroke-width="12" stroke-linejoin="round"/>
</svg>
